<svg xmlns="http://www.w3.org/2000/svg" viewBox="0 0 64 64" width="64" height="64">
  <defs>
    <linearGradient id="g" x1="0" y1="0" x2="1" y2="1">
      <stop offset="0%" stop-color="#ff9ecb"/>
      <stop offset="55%" stop-color="#f767a8"/>
      <stop offset="100%" stop-color="#bba0fb"/>
    </linearGradient>
  </defs>
  <rect x="2" y="2" width="60" height="60" rx="16" fill="#fff5f9"/>
  <rect x="7" y="10" width="50" height="42" rx="13" fill="url(#g)" opacity=".18"/>
  <rect x="7" y="10" width="50" height="42" rx="13" fill="none" stroke="url(#g)" stroke-width="2.4"/>
  <circle cx="15" cy="18" r="1.8" fill="#f767a8"/>
  <circle cx="21" cy="18" r="1.8" fill="#efc478"/>
  <circle cx="27" cy="18" r="1.8" fill="#bba0fb"/>
  <!-- قلب + بی‌نهایت — همان مسیر favicon.svg، کوچک‌شده (×0.49) داخل قاب پنجره؛ ساختار مطابق آویز مرجع -->
  <path d="M32.78 48.66 C27.03 40.13 19.1 36.76 19.1 28.92 C19.1 25.32 22.02 22.4 25.62 22.4 C28.71 22.4 31.38 24.58 32 27.61 C32.62 24.58 35.29 22.4 38.38 22.4 C41.98 22.4 44.9 25.32 44.9 28.92 C44.9 31.91 43.97 34.26 42.5 36.49 M37.14 42.24 C37.04 41.39 36.89 40.2 37.11 39.39 C37.4 38.29 38.45 37.56 39.58 37.66 C40.72 37.76 41.62 38.66 41.72 39.8 C41.82 40.93 41.09 41.98 39.99 42.27 C39.18 42.49 37.99 42.34 37.14 42.24 C37.24 43.09 37.39 44.28 37.17 45.09 C36.88 46.19 35.83 46.92 34.7 46.82 C33.56 46.72 32.66 45.82 32.56 44.68 C32.46 43.55 33.19 42.5 34.29 42.21 C35.1 41.99 36.29 42.14 37.14 42.24 Z" fill="none" stroke="url(#g)" stroke-width="2" stroke-linecap="round" stroke-linejoin="round"/>
</svg>
